<?xml version="1.0" encoding="UTF-8"?>
<svg xmlns="http://www.w3.org/2000/svg" xmlns:xlink="http://www.w3.org/1999/xlink" width="3872.97" height="3872.97" viewBox="0 0 3872.97 3872.97">
<defs>
<clipPath id="clip-0">
<path clip-rule="nonzero" d="M 0 0 L 3872.96875 0 L 3872.96875 3872.96875 L 0 3872.96875 Z M 0 0 "/>
</clipPath>
<clipPath id="clip-1">
<path clip-rule="evenodd" d="M 859.636719 0 L 3013.328125 0 C 3486.121094 0 3872.96875 386.839844 3872.96875 859.628906 L 3872.96875 3013.328125 C 3872.96875 3486.121094 3486.121094 3872.96875 3013.328125 3872.96875 L 859.636719 3872.96875 C 386.839844 3872.96875 0 3486.121094 0 3013.328125 L 0 859.628906 C 0 386.839844 386.839844 0 859.636719 0 "/>
</clipPath>
<linearGradient id="linear-pattern-0" gradientUnits="userSpaceOnUse" x1="0" y1="0" x2="1" y2="0" gradientTransform="matrix(3872.97, 0, 0, 3872.97, 0, 1936.49)">
<stop offset="0" stop-color="rgb(0%, 16.470337%, 22.3526%)" stop-opacity="1"/>
<stop offset="0.0078125" stop-color="rgb(0%, 16.610718%, 22.494507%)" stop-opacity="1"/>
<stop offset="0.015625" stop-color="rgb(0%, 16.891479%, 22.77832%)" stop-opacity="1"/>
<stop offset="0.0234375" stop-color="rgb(0%, 17.173767%, 23.06366%)" stop-opacity="1"/>
<stop offset="0.03125" stop-color="rgb(0%, 17.456055%, 23.348999%)" stop-opacity="1"/>
<stop offset="0.0390625" stop-color="rgb(0%, 17.738342%, 23.634338%)" stop-opacity="1"/>
<stop offset="0.046875" stop-color="rgb(0%, 18.019104%, 23.918152%)" stop-opacity="1"/>
<stop offset="0.0546875" stop-color="rgb(0%, 18.301392%, 24.203491%)" stop-opacity="1"/>
<stop offset="0.0625" stop-color="rgb(0%, 18.583679%, 24.488831%)" stop-opacity="1"/>
<stop offset="0.0703125" stop-color="rgb(0%, 18.864441%, 24.77417%)" stop-opacity="1"/>
<stop offset="0.078125" stop-color="rgb(0%, 19.146729%, 25.057983%)" stop-opacity="1"/>
<stop offset="0.0859375" stop-color="rgb(0%, 19.429016%, 25.343323%)" stop-opacity="1"/>
<stop offset="0.09375" stop-color="rgb(0%, 19.711304%, 25.628662%)" stop-opacity="1"/>
<stop offset="0.101562" stop-color="rgb(0%, 19.992065%, 25.912476%)" stop-opacity="1"/>
<stop offset="0.109375" stop-color="rgb(0%, 20.274353%, 26.197815%)" stop-opacity="1"/>
<stop offset="0.117188" stop-color="rgb(0%, 20.556641%, 26.483154%)" stop-opacity="1"/>
<stop offset="0.125" stop-color="rgb(0%, 20.837402%, 26.768494%)" stop-opacity="1"/>
<stop offset="0.132812" stop-color="rgb(0%, 21.11969%, 27.052307%)" stop-opacity="1"/>
<stop offset="0.140625" stop-color="rgb(0%, 21.401978%, 27.337646%)" stop-opacity="1"/>
<stop offset="0.148437" stop-color="rgb(0%, 21.684265%, 27.622986%)" stop-opacity="1"/>
<stop offset="0.15625" stop-color="rgb(0%, 21.965027%, 27.908325%)" stop-opacity="1"/>
<stop offset="0.164062" stop-color="rgb(0%, 22.247314%, 28.192139%)" stop-opacity="1"/>
<stop offset="0.171875" stop-color="rgb(0%, 22.529602%, 28.477478%)" stop-opacity="1"/>
<stop offset="0.179687" stop-color="rgb(0%, 22.81189%, 28.762817%)" stop-opacity="1"/>
<stop offset="0.1875" stop-color="rgb(0%, 23.092651%, 29.046631%)" stop-opacity="1"/>
<stop offset="0.195312" stop-color="rgb(0%, 23.374939%, 29.33197%)" stop-opacity="1"/>
<stop offset="0.203125" stop-color="rgb(0%, 23.657227%, 29.61731%)" stop-opacity="1"/>
<stop offset="0.210938" stop-color="rgb(0%, 23.937988%, 29.902649%)" stop-opacity="1"/>
<stop offset="0.21875" stop-color="rgb(0%, 24.220276%, 30.186462%)" stop-opacity="1"/>
<stop offset="0.226562" stop-color="rgb(0%, 24.502563%, 30.471802%)" stop-opacity="1"/>
<stop offset="0.234375" stop-color="rgb(0%, 24.784851%, 30.757141%)" stop-opacity="1"/>
<stop offset="0.242188" stop-color="rgb(0%, 25.065613%, 31.04248%)" stop-opacity="1"/>
<stop offset="0.25" stop-color="rgb(0%, 25.3479%, 31.326294%)" stop-opacity="1"/>
<stop offset="0.257812" stop-color="rgb(0%, 25.630188%, 31.611633%)" stop-opacity="1"/>
<stop offset="0.265625" stop-color="rgb(0%, 25.91095%, 31.896973%)" stop-opacity="1"/>
<stop offset="0.273437" stop-color="rgb(0%, 26.193237%, 32.180786%)" stop-opacity="1"/>
<stop offset="0.28125" stop-color="rgb(0%, 26.475525%, 32.466125%)" stop-opacity="1"/>
<stop offset="0.289062" stop-color="rgb(0%, 26.757812%, 32.751465%)" stop-opacity="1"/>
<stop offset="0.296875" stop-color="rgb(0%, 27.038574%, 33.036804%)" stop-opacity="1"/>
<stop offset="0.304687" stop-color="rgb(0%, 27.320862%, 33.320618%)" stop-opacity="1"/>
<stop offset="0.3125" stop-color="rgb(0%, 27.603149%, 33.605957%)" stop-opacity="1"/>
<stop offset="0.320312" stop-color="rgb(0%, 27.885437%, 33.891296%)" stop-opacity="1"/>
<stop offset="0.328125" stop-color="rgb(0%, 28.166199%, 34.176636%)" stop-opacity="1"/>
<stop offset="0.335937" stop-color="rgb(0%, 28.448486%, 34.460449%)" stop-opacity="1"/>
<stop offset="0.34375" stop-color="rgb(0%, 28.730774%, 34.745789%)" stop-opacity="1"/>
<stop offset="0.351562" stop-color="rgb(0%, 29.011536%, 35.031128%)" stop-opacity="1"/>
<stop offset="0.359375" stop-color="rgb(0%, 29.293823%, 35.316467%)" stop-opacity="1"/>
<stop offset="0.367187" stop-color="rgb(0%, 29.576111%, 35.600281%)" stop-opacity="1"/>
<stop offset="0.375" stop-color="rgb(0%, 29.858398%, 35.88562%)" stop-opacity="1"/>
<stop offset="0.382812" stop-color="rgb(0%, 30.13916%, 36.170959%)" stop-opacity="1"/>
<stop offset="0.390625" stop-color="rgb(0%, 30.421448%, 36.454773%)" stop-opacity="1"/>
<stop offset="0.398438" stop-color="rgb(0%, 30.703735%, 36.740112%)" stop-opacity="1"/>
<stop offset="0.40625" stop-color="rgb(0%, 30.984497%, 37.025452%)" stop-opacity="1"/>
<stop offset="0.414062" stop-color="rgb(0%, 31.266785%, 37.310791%)" stop-opacity="1"/>
<stop offset="0.421875" stop-color="rgb(0%, 31.549072%, 37.594604%)" stop-opacity="1"/>
<stop offset="0.429688" stop-color="rgb(0%, 31.83136%, 37.879944%)" stop-opacity="1"/>
<stop offset="0.4375" stop-color="rgb(0%, 32.112122%, 38.165283%)" stop-opacity="1"/>
<stop offset="0.445312" stop-color="rgb(0%, 32.394409%, 38.450623%)" stop-opacity="1"/>
<stop offset="0.453125" stop-color="rgb(0%, 32.676697%, 38.734436%)" stop-opacity="1"/>
<stop offset="0.460938" stop-color="rgb(0%, 32.958984%, 39.019775%)" stop-opacity="1"/>
<stop offset="0.46875" stop-color="rgb(0%, 33.239746%, 39.305115%)" stop-opacity="1"/>
<stop offset="0.476562" stop-color="rgb(0%, 33.522034%, 39.588928%)" stop-opacity="1"/>
<stop offset="0.484375" stop-color="rgb(0%, 33.804321%, 39.874268%)" stop-opacity="1"/>
<stop offset="0.492188" stop-color="rgb(0%, 34.085083%, 40.159607%)" stop-opacity="1"/>
<stop offset="0.5" stop-color="rgb(0%, 34.367371%, 40.444946%)" stop-opacity="1"/>
<stop offset="0.507812" stop-color="rgb(0%, 34.649658%, 40.72876%)" stop-opacity="1"/>
<stop offset="0.515625" stop-color="rgb(0%, 34.931946%, 41.014099%)" stop-opacity="1"/>
<stop offset="0.523437" stop-color="rgb(0%, 35.212708%, 41.299438%)" stop-opacity="1"/>
<stop offset="0.53125" stop-color="rgb(0%, 35.494995%, 41.584778%)" stop-opacity="1"/>
<stop offset="0.539062" stop-color="rgb(0%, 35.777283%, 41.868591%)" stop-opacity="1"/>
<stop offset="0.546875" stop-color="rgb(0%, 36.058044%, 42.153931%)" stop-opacity="1"/>
<stop offset="0.554687" stop-color="rgb(0%, 36.340332%, 42.43927%)" stop-opacity="1"/>
<stop offset="0.5625" stop-color="rgb(0%, 36.62262%, 42.723083%)" stop-opacity="1"/>
<stop offset="0.570312" stop-color="rgb(0%, 36.904907%, 43.008423%)" stop-opacity="1"/>
<stop offset="0.578125" stop-color="rgb(0%, 37.185669%, 43.293762%)" stop-opacity="1"/>
<stop offset="0.585937" stop-color="rgb(0%, 37.467957%, 43.579102%)" stop-opacity="1"/>
<stop offset="0.59375" stop-color="rgb(0%, 37.750244%, 43.862915%)" stop-opacity="1"/>
<stop offset="0.601562" stop-color="rgb(0%, 38.031006%, 44.148254%)" stop-opacity="1"/>
<stop offset="0.609375" stop-color="rgb(0%, 38.313293%, 44.433594%)" stop-opacity="1"/>
<stop offset="0.617187" stop-color="rgb(0%, 38.595581%, 44.718933%)" stop-opacity="1"/>
<stop offset="0.625" stop-color="rgb(0%, 38.877869%, 45.002747%)" stop-opacity="1"/>
<stop offset="0.632812" stop-color="rgb(0%, 39.15863%, 45.288086%)" stop-opacity="1"/>
<stop offset="0.640625" stop-color="rgb(0%, 39.440918%, 45.573425%)" stop-opacity="1"/>
<stop offset="0.648437" stop-color="rgb(0%, 39.723206%, 45.858765%)" stop-opacity="1"/>
<stop offset="0.65625" stop-color="rgb(0%, 40.005493%, 46.142578%)" stop-opacity="1"/>
<stop offset="0.664062" stop-color="rgb(0%, 40.286255%, 46.427917%)" stop-opacity="1"/>
<stop offset="0.671875" stop-color="rgb(0%, 40.568542%, 46.713257%)" stop-opacity="1"/>
<stop offset="0.679687" stop-color="rgb(0%, 40.85083%, 46.99707%)" stop-opacity="1"/>
<stop offset="0.6875" stop-color="rgb(0%, 41.131592%, 47.28241%)" stop-opacity="1"/>
<stop offset="0.695312" stop-color="rgb(0%, 41.413879%, 47.567749%)" stop-opacity="1"/>
<stop offset="0.703125" stop-color="rgb(0%, 41.696167%, 47.853088%)" stop-opacity="1"/>
<stop offset="0.710937" stop-color="rgb(0%, 41.978455%, 48.136902%)" stop-opacity="1"/>
<stop offset="0.71875" stop-color="rgb(0%, 42.259216%, 48.422241%)" stop-opacity="1"/>
<stop offset="0.726562" stop-color="rgb(0%, 42.541504%, 48.707581%)" stop-opacity="1"/>
<stop offset="0.734375" stop-color="rgb(0%, 42.823792%, 48.99292%)" stop-opacity="1"/>
<stop offset="0.742187" stop-color="rgb(0%, 43.104553%, 49.276733%)" stop-opacity="1"/>
<stop offset="0.75" stop-color="rgb(0%, 43.386841%, 49.562073%)" stop-opacity="1"/>
<stop offset="0.757812" stop-color="rgb(0%, 43.669128%, 49.847412%)" stop-opacity="1"/>
<stop offset="0.765625" stop-color="rgb(0%, 43.951416%, 50.131226%)" stop-opacity="1"/>
<stop offset="0.773438" stop-color="rgb(0%, 44.232178%, 50.416565%)" stop-opacity="1"/>
<stop offset="0.78125" stop-color="rgb(0%, 44.514465%, 50.701904%)" stop-opacity="1"/>
<stop offset="0.789062" stop-color="rgb(0%, 44.796753%, 50.987244%)" stop-opacity="1"/>
<stop offset="0.796875" stop-color="rgb(0%, 45.079041%, 51.271057%)" stop-opacity="1"/>
<stop offset="0.804688" stop-color="rgb(0%, 45.359802%, 51.556396%)" stop-opacity="1"/>
<stop offset="0.8125" stop-color="rgb(0%, 45.64209%, 51.841736%)" stop-opacity="1"/>
<stop offset="0.820312" stop-color="rgb(0%, 45.924377%, 52.127075%)" stop-opacity="1"/>
<stop offset="0.828125" stop-color="rgb(0%, 46.205139%, 52.410889%)" stop-opacity="1"/>
<stop offset="0.835938" stop-color="rgb(0%, 46.487427%, 52.696228%)" stop-opacity="1"/>
<stop offset="0.84375" stop-color="rgb(0%, 46.769714%, 52.981567%)" stop-opacity="1"/>
<stop offset="0.851562" stop-color="rgb(0%, 47.052002%, 53.265381%)" stop-opacity="1"/>
<stop offset="0.859375" stop-color="rgb(0%, 47.332764%, 53.55072%)" stop-opacity="1"/>
<stop offset="0.867188" stop-color="rgb(0%, 47.615051%, 53.83606%)" stop-opacity="1"/>
<stop offset="0.875" stop-color="rgb(0%, 47.897339%, 54.121399%)" stop-opacity="1"/>
<stop offset="0.882812" stop-color="rgb(0%, 48.178101%, 54.405212%)" stop-opacity="1"/>
<stop offset="0.890625" stop-color="rgb(0%, 48.460388%, 54.690552%)" stop-opacity="1"/>
<stop offset="0.898438" stop-color="rgb(0%, 48.742676%, 54.975891%)" stop-opacity="1"/>
<stop offset="0.90625" stop-color="rgb(0%, 49.024963%, 55.26123%)" stop-opacity="1"/>
<stop offset="0.914062" stop-color="rgb(0%, 49.305725%, 55.545044%)" stop-opacity="1"/>
<stop offset="0.921875" stop-color="rgb(0%, 49.588013%, 55.830383%)" stop-opacity="1"/>
<stop offset="0.929688" stop-color="rgb(0%, 49.8703%, 56.115723%)" stop-opacity="1"/>
<stop offset="0.9375" stop-color="rgb(0%, 50.152588%, 56.401062%)" stop-opacity="1"/>
<stop offset="0.945312" stop-color="rgb(0%, 50.43335%, 56.684875%)" stop-opacity="1"/>
<stop offset="0.953125" stop-color="rgb(0%, 50.715637%, 56.970215%)" stop-opacity="1"/>
<stop offset="0.960938" stop-color="rgb(0%, 50.997925%, 57.255554%)" stop-opacity="1"/>
<stop offset="0.96875" stop-color="rgb(0%, 51.278687%, 57.539368%)" stop-opacity="1"/>
<stop offset="0.976562" stop-color="rgb(0%, 51.560974%, 57.824707%)" stop-opacity="1"/>
<stop offset="0.984375" stop-color="rgb(0%, 51.843262%, 58.110046%)" stop-opacity="1"/>
<stop offset="0.992188" stop-color="rgb(0%, 52.125549%, 58.395386%)" stop-opacity="1"/>
<stop offset="1" stop-color="rgb(0%, 52.406311%, 58.679199%)" stop-opacity="1"/>
</linearGradient>
<clipPath id="clip-2">
<path clip-rule="nonzero" d="M 889 697 L 2984 697 L 2984 3176 L 889 3176 Z M 889 697 "/>
</clipPath>
<clipPath id="clip-3">
<path clip-rule="evenodd" d="M 2337.261719 1877.75 C 2443.058594 1877.75 2541.679688 1934.550781 2594.589844 2026.191406 C 2676.300781 2167.710938 2627.480469 2349.898438 2485.96875 2431.621094 C 2440.988281 2457.601562 2389.808594 2471.449219 2337.890625 2471.449219 C 2232.070312 2471.449219 2133.449219 2414.640625 2080.519531 2323 C 2040.910156 2254.359375 2030.519531 2172.238281 2051.539062 2095.871094 C 2072.289062 2020.460938 2121.421875 1956.671875 2189.179688 1917.558594 C 2192.878906 1915.410156 2196.648438 1913.359375 2200.46875 1911.371094 C 2242.640625 1889.390625 2289.671875 1877.75 2337.261719 1877.75 Z M 2505.308594 2465.179688 C 2454.488281 2494.519531 2396.570312 2510.179688 2337.871094 2510.179688 C 2218.320312 2510.179688 2106.78125 2445.941406 2046.96875 2342.359375 C 2008.480469 2275.699219 1994.160156 2197.449219 2006.429688 2121.480469 C 2022.550781 2021.640625 2082.078125 1934.699219 2169.800781 1884.03125 C 2181.640625 1877.210938 2193.890625 1871.101562 2206.460938 1865.75 C 2247.789062 1848.199219 2292.359375 1839.039062 2337.238281 1839.039062 C 2456.789062 1839.039062 2568.328125 1903.300781 2628.109375 2006.851562 C 2720.5 2166.820312 2665.269531 2372.808594 2505.308594 2465.179688 Z M 2578.46875 2912.058594 L 2543.761719 2851.929688 L 2629.828125 2802.210938 C 2637.851562 2797.578125 2647.359375 2796.398438 2656.261719 2798.851562 C 2665.109375 2801.289062 2672.628906 2806.960938 2677.238281 2814.941406 C 2686.71875 2831.390625 2680.96875 2852.878906 2664.539062 2862.351562 Z M 2921.46875 2865.738281 L 2956.179688 2925.859375 L 2870.121094 2975.570312 C 2853.691406 2985.058594 2832.160156 2979.308594 2822.679688 2962.839844 C 2813.210938 2946.390625 2818.960938 2924.960938 2835.390625 2915.460938 Z M 2337.96875 2645.921875 L 2340.148438 2645.921875 L 2341.828125 2645.898438 L 2342.339844 2645.898438 L 2344.53125 2645.878906 L 2345.691406 2645.859375 L 2346.710938 2645.839844 L 2348.898438 2645.800781 L 2349.53125 2645.78125 L 2351.089844 2645.738281 L 2353.25 2645.671875 L 2353.390625 2645.671875 L 2357.058594 2645.53125 L 2357.230469 2645.53125 L 2357.628906 2645.511719 L 2359.789062 2645.410156 L 2361.070312 2645.351562 L 2361.980469 2645.308594 L 2364.171875 2645.191406 L 2364.941406 2645.128906 L 2368.519531 2644.921875 L 2368.761719 2644.921875 L 2370.691406 2644.78125 L 2372.601562 2644.640625 L 2372.851562 2644.621094 L 2375.039062 2644.441406 L 2376.441406 2644.328125 L 2377.210938 2644.269531 L 2379.371094 2644.070312 L 2380.261719 2644.011719 L 2381.539062 2643.890625 L 2383.710938 2643.679688 L 2384.101562 2643.640625 L 2385.878906 2643.460938 L 2387.921875 2643.238281 L 2388.039062 2643.21875 L 2390.210938 2642.988281 L 2391.75 2642.808594 L 2392.378906 2642.730469 L 2394.539062 2642.480469 L 2396.710938 2642.21875 L 2398.859375 2641.921875 L 2399.371094 2641.859375 L 2401.019531 2641.648438 L 2403.171875 2641.351562 L 2403.171875 2641.328125 L 2405.339844 2641.039062 L 2406.96875 2640.800781 L 2407.480469 2640.71875 L 2409.628906 2640.390625 L 2411.78125 2640.050781 L 2413.929688 2639.699219 L 2414.558594 2639.601562 L 2416.070312 2639.339844 L 2418.21875 2638.96875 L 2418.339844 2638.949219 L 2420.371094 2638.589844 L 2422.121094 2638.28125 L 2422.519531 2638.199219 L 2424.640625 2637.808594 L 2424.980469 2637.75 L 2426.789062 2637.390625 L 2428.921875 2636.980469 L 2431.058594 2636.550781 L 2433.191406 2636.109375 L 2433.429688 2636.070312 L 2435.320312 2635.660156 L 2439.28125 2634.808594 L 2439.75 2634.691406 L 2441.679688 2634.261719 L 2443.808594 2633.769531 L 2445.941406 2633.269531 L 2448.050781 2632.78125 L 2448.421875 2632.679688 L 2450.171875 2632.25 L 2456.5 2630.660156 L 2458.601562 2630.078125 L 2460.691406 2629.53125 L 2462.800781 2628.960938 L 2463.269531 2628.820312 L 2464.890625 2628.371094 L 2466.980469 2627.78125 L 2467 2627.78125 L 2469.078125 2627.171875 L 2470.660156 2626.71875 L 2471.171875 2626.558594 L 2473.261719 2625.929688 L 2474.339844 2625.609375 L 2475.351562 2625.300781 L 2505 2676.648438 L 2491.738281 2684.320312 C 2482.808594 2689.460938 2476.351562 2697.910156 2473.671875 2707.839844 C 2471.019531 2717.761719 2472.410156 2728.320312 2477.53125 2737.210938 L 2524.398438 2818.390625 L 2610.480469 2768.691406 C 2627.441406 2758.898438 2647.261719 2756.351562 2666.171875 2761.421875 C 2685.140625 2766.519531 2700.960938 2778.578125 2710.769531 2795.601562 C 2730.980469 2830.578125 2718.890625 2875.671875 2683.898438 2895.878906 L 2597.839844 2945.601562 L 2684.410156 3095.550781 C 2712.921875 3144.859375 2766.191406 3175.511719 2823.429688 3175.511719 C 2851.398438 3175.511719 2878.941406 3168.121094 2903.128906 3154.121094 C 2940.03125 3132.820312 2966.460938 3098.289062 2977.558594 3056.898438 C 2986.21875 3024.601562 2984.710938 2991.230469 2973.5 2960.589844 L 2889.480469 3009.109375 C 2878.308594 3015.550781 2865.78125 3018.921875 2852.898438 3018.921875 C 2826.640625 3018.921875 2802.308594 3005.070312 2789.128906 2982.238281 C 2779.359375 2965.261719 2776.820312 2945.449219 2781.878906 2926.53125 C 2786.949219 2907.558594 2799.019531 2891.75 2816.019531 2881.921875 L 2902.109375 2832.21875 L 2754.820312 2577.128906 C 2744.121094 2558.601562 2720.5 2552.269531 2701.929688 2562.949219 L 2688.628906 2570.628906 L 2658.980469 2519.300781 L 2659.199219 2519.101562 L 2660.789062 2517.578125 C 2662.839844 2515.648438 2664.890625 2513.699219 2666.898438 2511.730469 L 2670.128906 2508.519531 C 2671.589844 2507.058594 2673.070312 2505.589844 2674.519531 2504.109375 L 2677.828125 2500.660156 C 2679.308594 2499.128906 2680.769531 2497.589844 2682.230469 2496.03125 L 2685.21875 2492.78125 L 2689.710938 2487.78125 L 2692.511719 2484.628906 L 2697.121094 2479.230469 L 2699.519531 2476.390625 C 2701.46875 2474.070312 2703.359375 2471.71875 2705.261719 2469.359375 L 2706.28125 2468.101562 L 2706.320312 2468.058594 L 2707.519531 2466.5 C 2709.328125 2464.199219 2711.128906 2461.871094 2712.898438 2459.550781 L 2714.96875 2456.769531 C 2716.390625 2454.839844 2717.820312 2452.910156 2719.21875 2450.960938 L 2721.820312 2447.320312 L 2725.328125 2442.308594 L 2727.949219 2438.46875 C 2729.171875 2436.660156 2730.371094 2434.828125 2731.570312 2433 L 2733.800781 2429.570312 C 2735.058594 2427.601562 2736.300781 2425.609375 2737.539062 2423.621094 L 2739.53125 2420.390625 C 2741.128906 2417.769531 2742.71875 2415.128906 2744.261719 2412.449219 L 2744.910156 2411.390625 L 2744.988281 2411.269531 C 2746.71875 2408.25 2748.421875 2405.199219 2750.089844 2402.171875 L 2751.921875 2398.78125 C 2753.03125 2396.710938 2754.148438 2394.640625 2755.210938 2392.570312 L 2756.890625 2389.28125 C 2757.96875 2387.179688 2759.03125 2385.070312 2760.078125 2382.941406 L 2761.808594 2379.371094 C 2762.820312 2377.289062 2763.800781 2375.199219 2764.769531 2373.089844 L 2766.300781 2369.761719 L 2769.21875 2363.199219 L 2770.71875 2359.730469 C 2772.058594 2356.621094 2773.339844 2353.46875 2774.621094 2350.339844 L 2774.679688 2350.160156 C 2775.988281 2346.871094 2777.269531 2343.578125 2778.519531 2340.289062 L 2779.800781 2336.730469 C 2780.601562 2334.519531 2781.410156 2332.308594 2782.179688 2330.089844 L 2783.339844 2326.71875 C 2784.128906 2324.410156 2784.898438 2322.128906 2785.628906 2319.820312 L 2786.769531 2316.261719 C 2787.480469 2314.011719 2788.171875 2311.75 2788.839844 2309.5 L 2789.859375 2306.070312 C 2790.550781 2303.648438 2791.21875 2301.25 2791.890625 2298.808594 L 2792.78125 2295.609375 C 2793.410156 2293.191406 2794.019531 2290.769531 2794.628906 2288.328125 L 2795.441406 2285.109375 C 2796.269531 2281.691406 2797.050781 2278.261719 2797.820312 2274.808594 L 2798.21875 2272.898438 C 2798.789062 2270.121094 2799.378906 2267.371094 2799.910156 2264.589844 L 2800.640625 2260.75 C 2801.050781 2258.5 2801.46875 2256.28125 2801.839844 2254.050781 L 2802.511719 2250.050781 L 2803.511719 2243.628906 L 2804.148438 2239.328125 C 2804.460938 2237.03125 2804.761719 2234.730469 2805.050781 2232.421875 L 2805.480469 2228.910156 C 2805.78125 2226.371094 2806.058594 2223.851562 2806.308594 2221.328125 L 2806.628906 2218.121094 C 2806.960938 2214.589844 2807.261719 2211.089844 2807.511719 2207.558594 L 2807.628906 2205.53125 C 2807.828125 2202.710938 2808.011719 2199.898438 2808.121094 2197.078125 L 2808.300781 2193.121094 C 2808.398438 2190.871094 2808.480469 2188.609375 2808.539062 2186.339844 L 2808.621094 2182.191406 C 2808.660156 2180.019531 2808.691406 2177.828125 2808.691406 2175.648438 L 2808.691406 2171.351562 L 2808.621094 2164.789062 L 2808.539062 2160.558594 C 2808.460938 2158.148438 2808.359375 2155.769531 2808.261719 2153.371094 L 2808.101562 2149.898438 C 2807.929688 2146.351562 2807.710938 2142.851562 2807.449219 2139.300781 L 2807.300781 2137.289062 C 2807.058594 2134.359375 2806.800781 2131.398438 2806.53125 2128.449219 L 2806.191406 2125.300781 C 2805.941406 2122.808594 2805.660156 2120.308594 2805.371094 2117.828125 L 2804.851562 2113.769531 L 2803.949219 2107.128906 L 2803.339844 2102.980469 C 2802.980469 2100.648438 2802.609375 2098.328125 2802.210938 2096 L 2801.601562 2092.359375 C 2801.148438 2089.738281 2800.660156 2087.121094 2800.148438 2084.519531 L 2799.589844 2081.621094 C 2798.890625 2078.160156 2798.179688 2074.691406 2797.390625 2071.21875 L 2797.289062 2070.808594 L 2796.898438 2069.101562 C 2796.230469 2066.179688 2795.539062 2063.269531 2794.808594 2060.351562 L 2793.941406 2057.039062 C 2793.308594 2054.601562 2792.679688 2052.140625 2792.011719 2049.691406 L 2791.011719 2046.148438 C 2790.339844 2043.78125 2789.648438 2041.421875 2788.941406 2039.058594 L 2787.769531 2035.230469 C 2787.101562 2033.03125 2786.398438 2030.839844 2785.691406 2028.628906 L 2784.328125 2024.5 C 2783.578125 2022.308594 2782.808594 2020.140625 2782.039062 2017.960938 L 2780.699219 2014.101562 C 2779.460938 2010.730469 2778.199219 2007.339844 2776.898438 2003.96875 L 2776.820312 2003.769531 L 2776.738281 2003.578125 C 2775.441406 2000.289062 2774.121094 1997.019531 2772.761719 1993.730469 L 2771.070312 1989.789062 C 2770.140625 1987.621094 2769.21875 1985.449219 2768.25 1983.289062 L 2766.578125 1979.578125 C 2765.570312 1977.398438 2764.589844 1975.230469 2763.550781 1973.058594 L 2761.609375 1969.019531 C 2760.589844 1966.921875 2759.550781 1964.808594 2758.480469 1962.699219 L 2756.628906 1959.039062 C 2755.351562 1956.558594 2754.050781 1954.109375 2752.730469 1951.648438 L 2751.328125 1949.03125 C 2749.5 1945.671875 2747.628906 1942.320312 2745.699219 1938.988281 C 2661.761719 1793.601562 2505.210938 1703.28125 2337.179688 1703.28125 C 2254.921875 1703.28125 2173.578125 1725.109375 2101.949219 1766.480469 C 1876.929688 1896.398438 1799.550781 2185.199219 1929.460938 2410.21875 C 2013.390625 2555.601562 2169.941406 2645.921875 2337.96875 2645.921875 Z M 2093.558594 2622.148438 L 928.5625 2622.148438 C 907.167969 2622.148438 889.84375 2604.808594 889.84375 2583.441406 C 889.84375 2562.019531 907.167969 2544.710938 928.5625 2544.710938 L 1986.929688 2544.710938 C 2019.058594 2575.058594 2054.949219 2601.089844 2093.558594 2622.148438 Z M 1869.871094 1972.308594 C 1911.789062 1874.949219 1984.109375 1789.789062 2082.570312 1732.941406 C 2120.769531 1710.890625 2161.558594 1693.941406 2203.820312 1682.421875 L 2203.820312 1108.628906 C 2203.820312 1087.230469 2186.480469 1069.910156 2165.089844 1069.910156 L 1908.589844 1069.898438 C 1887.191406 1069.898438 1869.871094 1087.230469 1869.871094 1108.621094 Z M 1448.75 2331.03125 L 1782.671875 2331.03125 L 1782.671875 1621.601562 C 1782.671875 1600.210938 1765.351562 1582.878906 1743.949219 1582.878906 L 1487.46875 1582.878906 C 1466.078125 1582.878906 1448.75 1600.210938 1448.75 1621.601562 Z M 1027.589844 2331.03125 L 1361.539062 2331.03125 L 1361.539062 2037.101562 C 1361.539062 2015.710938 1344.210938 1998.398438 1322.820312 1998.398438 L 1066.320312 1998.398438 C 1044.910156 1998.398438 1027.589844 2015.710938 1027.589844 2037.101562 Z M 2232.441406 1052.960938 L 2232.378906 1053.050781 L 2232.050781 1053.96875 L 2231.710938 1054.890625 L 2231.378906 1055.808594 L 2231.058594 1056.730469 L 2231.039062 1056.761719 L 2230.429688 1058.609375 L 2230.121094 1059.53125 L 2229.820312 1060.46875 L 2229.519531 1061.410156 L 2229.230469 1062.359375 L 2228.949219 1063.300781 L 2228.480469 1064.960938 L 2228.398438 1065.199219 L 2228.148438 1066.160156 L 2227.910156 1067.121094 L 2227.691406 1067.910156 L 2227.101562 1070.328125 L 2226.828125 1071.539062 L 2226.730469 1071.941406 L 2226.511719 1072.921875 L 2226.308594 1073.878906 L 2226.121094 1074.871094 L 2225.921875 1075.839844 L 2225.738281 1076.828125 L 2225.578125 1077.601562 L 2225.550781 1077.808594 L 2225.550781 1077.890625 L 2225.210938 1079.789062 L 2225.050781 1080.78125 L 2225.011719 1081.019531 L 2224.910156 1081.78125 L 2224.640625 1083.769531 L 2224.539062 1084.480469 L 2224.5 1084.78125 L 2224.378906 1085.78125 L 2224.191406 1087.480469 L 2224.109375 1088.378906 L 2223.871094 1090.828125 L 2223.828125 1091.449219 L 2223.789062 1091.839844 L 2223.601562 1094.898438 L 2223.601562 1094.988281 L 2223.480469 1097.980469 L 2223.460938 1098.539062 L 2223.460938 1099.011719 L 2223.421875 1102.109375 C 2223.421875 1178.558594 2285.609375 1240.761719 2362.039062 1240.761719 L 2362.449219 1240.761719 L 2364.921875 1240.71875 L 2365.328125 1240.71875 L 2365.429688 1240.710938 L 2365.71875 1240.710938 L 2365.820312 1240.699219 L 2365.941406 1240.699219 L 2366.039062 1240.691406 L 2366.328125 1240.691406 L 2366.429688 1240.679688 L 2366.550781 1240.671875 L 2366.75 1240.671875 L 2367.671875 1240.640625 L 2367.769531 1240.628906 L 2367.96875 1240.621094 L 2368.070312 1240.621094 L 2368.171875 1240.609375 L 2368.378906 1240.609375 L 2368.480469 1240.601562 L 2368.578125 1240.589844 L 2436.148438 1437.660156 L 2436.148438 1437.671875 L 2435.019531 1438.46875 L 2434.488281 1438.859375 L 2433.050781 1439.921875 L 2432.859375 1440.070312 L 2431.238281 1441.308594 L 2429.648438 1442.550781 L 2429.628906 1442.558594 L 2428.050781 1443.851562 L 2427.808594 1444.039062 L 2426.480469 1445.148438 L 2426.160156 1445.421875 L 2424.941406 1446.480469 L 2423.398438 1447.828125 L 2423.339844 1447.890625 L 2422 1449.109375 L 2421.898438 1449.199219 L 2420.429688 1450.601562 L 2419.109375 1451.859375 L 2418.890625 1452.058594 L 2417.511719 1453.441406 L 2416.089844 1454.898438 L 2415.941406 1455.070312 L 2415.070312 1455.96875 L 2414.691406 1456.378906 L 2413.359375 1457.808594 L 2413.320312 1457.871094 L 2411.960938 1459.390625 L 2411.800781 1459.558594 L 2410.660156 1460.878906 L 2410.621094 1460.929688 L 2409.300781 1462.480469 L 2408.308594 1463.699219 L 2408.019531 1464.058594 L 2406.910156 1465.441406 L 2406.738281 1465.660156 L 2405.199219 1467.660156 L 2404.53125 1468.558594 L 2404.269531 1468.910156 L 2403.070312 1470.558594 L 2402.28125 1471.691406 L 2401.558594 1472.730469 L 2400.75 1473.921875 L 2399.628906 1475.621094 L 2399.449219 1475.890625 L 2398.78125 1476.949219 L 2398.519531 1477.339844 L 2397.441406 1479.078125 L 2397.398438 1479.140625 L 2396.988281 1479.859375 L 2396.058594 1481.421875 L 2395.429688 1482.5 L 2395.371094 1482.621094 L 2394.371094 1484.398438 L 2394.351562 1484.460938 L 2393.738281 1485.570312 L 2392.949219 1487.070312 L 2392.019531 1488.851562 L 2391.230469 1490.46875 L 2390.859375 1491.238281 L 2389.808594 1493.441406 L 2389.238281 1494.710938 L 2388.589844 1496.210938 L 2388.101562 1497.359375 L 2387.308594 1499.269531 L 2387.230469 1499.480469 L 2386.679688 1500.871094 L 2386.550781 1501.199219 L 2385.820312 1503.140625 L 2385.738281 1503.359375 L 2385.660156 1503.601562 L 2384.75 1506.101562 L 2384.601562 1506.558594 L 2384.441406 1507.050781 L 2383.648438 1509.519531 L 2383.429688 1510.171875 L 2382.648438 1512.828125 L 2382.589844 1513.03125 L 2382.570312 1513.058594 L 2382.46875 1513.480469 L 2381.761719 1516.121094 L 2381.660156 1516.480469 L 2380.910156 1519.539062 L 2380.789062 1520 L 2380.261719 1522.46875 L 2380.121094 1523.070312 L 2380.101562 1523.238281 L 2379.691406 1525.300781 L 2379.589844 1525.800781 L 2379.390625 1526.941406 L 2378.960938 1529.488281 L 2378.898438 1529.890625 L 2378.859375 1530.191406 L 2378.46875 1532.941406 L 2378.429688 1533.339844 L 2378.371094 1533.71875 L 2378.128906 1535.839844 L 2378.089844 1536.179688 L 2377.960938 1537.441406 L 2377.71875 1540.121094 L 2377.71875 1540.320312 L 2377.699219 1540.609375 L 2377.5 1543.628906 L 2377.480469 1544.019531 L 2377.371094 1547.128906 L 2377.351562 1547.78125 L 2377.308594 1550.96875 C 2377.308594 1627.421875 2439.5 1689.601562 2515.929688 1689.601562 L 2519.078125 1689.558594 L 2519.808594 1689.539062 L 2523.019531 1689.421875 L 2523.121094 1689.421875 L 2526.328125 1689.21875 L 2526.589844 1689.199219 L 2526.71875 1689.191406 L 2529.679688 1688.921875 L 2530.550781 1688.839844 L 2530.980469 1688.800781 L 2533.089844 1688.550781 L 2533.558594 1688.488281 L 2533.949219 1688.429688 C 2535.941406 1688.179688 2537.929688 1687.871094 2539.898438 1687.53125 L 2541.019531 1687.328125 L 2541.460938 1687.25 L 2543.53125 1686.851562 L 2543.839844 1686.789062 L 2544.511719 1686.640625 L 2547.109375 1686.070312 L 2547.230469 1686.039062 L 2549.949219 1685.378906 L 2551.148438 1685.070312 L 2553.671875 1684.390625 L 2553.851562 1684.328125 L 2553.929688 1684.308594 L 2556.730469 1683.480469 L 2557.121094 1683.359375 L 2557.628906 1683.191406 L 2560.191406 1682.359375 L 2560.628906 1682.210938 L 2563.5 1681.199219 L 2563.558594 1681.179688 L 2566.589844 1680.019531 L 2566.769531 1679.949219 L 2569.25 1678.941406 L 2569.839844 1678.691406 L 2570.058594 1678.601562 L 2572.941406 1677.339844 L 2573.019531 1677.300781 L 2575.5 1676.140625 L 2576.351562 1675.738281 L 2578.910156 1674.46875 L 2579.179688 1674.320312 L 2581.589844 1673.058594 L 2581.960938 1672.851562 L 2582.160156 1672.738281 L 2584.519531 1671.421875 L 2584.898438 1671.210938 L 2585.699219 1670.730469 L 2587.460938 1669.699219 L 2587.769531 1669.511719 L 2588.011719 1669.359375 L 2590.308594 1667.929688 L 2590.609375 1667.738281 L 2590.898438 1667.539062 L 2593.269531 1665.980469 L 2593.539062 1665.800781 L 2595.949219 1664.128906 L 2596.140625 1664 L 2596.21875 1663.929688 L 2598.390625 1662.359375 L 2598.839844 1662.039062 L 2599.238281 1661.730469 L 2601.320312 1660.121094 L 2601.761719 1659.769531 L 2603.628906 1658.269531 L 2604 1657.96875 L 2604.058594 1657.921875 L 2604.460938 1657.589844 L 2606.308594 1656.03125 L 2606.621094 1655.761719 L 2607.078125 1655.351562 L 2608.589844 1654.011719 L 2609.101562 1653.550781 L 2609.320312 1653.339844 L 2611.429688 1651.390625 L 2611.550781 1651.28125 L 2611.570312 1651.25 L 2611.648438 1651.171875 L 2613.578125 1649.300781 L 2614.171875 1648.699219 C 2615.628906 1647.230469 2617.058594 1645.730469 2618.441406 1644.210938 L 2618.519531 1644.140625 L 2618.640625 1644.011719 L 2620.609375 1641.769531 L 2620.808594 1641.550781 L 2622.621094 1639.421875 L 2622.871094 1639.109375 L 2623.289062 1638.601562 L 2624.78125 1636.738281 L 2624.960938 1636.519531 L 2625.160156 1636.269531 L 2626.789062 1634.128906 L 2627.148438 1633.648438 L 2628.800781 1631.398438 L 2772.488281 1681.578125 C 2776.699219 1683.039062 2781.019531 1683.75 2785.25 1683.75 C 2801.269531 1683.75 2816.21875 1673.761719 2821.800781 1657.78125 C 2828.828125 1637.601562 2818.191406 1615.539062 2798 1608.46875 L 2654.371094 1558.320312 L 2654.390625 1558.199219 L 2654.390625 1557.859375 L 2654.410156 1557.75 L 2654.410156 1557.628906 L 2654.511719 1554.769531 L 2654.53125 1554.660156 L 2654.53125 1553.980469 L 2654.570312 1551.328125 L 2654.570312 1550.96875 C 2654.570312 1474.53125 2592.378906 1412.328125 2515.929688 1412.328125 L 2515.519531 1412.328125 L 2513.050781 1412.371094 L 2512.640625 1412.371094 L 2512.539062 1412.378906 L 2512.230469 1412.378906 L 2512.128906 1412.390625 L 2512.03125 1412.390625 L 2511.929688 1412.398438 L 2511.609375 1412.398438 L 2511.519531 1412.410156 L 2511.421875 1412.410156 L 2510.269531 1412.449219 L 2510.179688 1412.460938 L 2509.878906 1412.46875 L 2509.78125 1412.480469 L 2509.570312 1412.480469 L 2509.46875 1412.488281 L 2509.371094 1412.5 L 2441.800781 1215.441406 L 2443.121094 1214.488281 L 2443.851562 1213.949219 L 2445.089844 1213.039062 L 2446.730469 1211.789062 L 2448.320312 1210.539062 L 2449.921875 1209.261719 L 2451.121094 1208.25 L 2451.808594 1207.671875 L 2453.011719 1206.621094 L 2454.550781 1205.269531 L 2456.039062 1203.910156 L 2457.539062 1202.511719 L 2458.800781 1201.289062 L 2459.078125 1201.019531 L 2460.441406 1199.660156 L 2461.851562 1198.199219 L 2463.191406 1196.789062 L 2463.269531 1196.730469 L 2464.609375 1195.289062 L 2464.648438 1195.230469 L 2466.011719 1193.710938 L 2466.089844 1193.609375 L 2467.328125 1192.171875 L 2468.648438 1190.609375 L 2469.621094 1189.441406 L 2470.421875 1188.441406 L 2471.210938 1187.449219 L 2472.449219 1185.828125 L 2473.539062 1184.390625 L 2473.671875 1184.199219 L 2474.878906 1182.539062 L 2475.050781 1182.308594 L 2476.058594 1180.878906 L 2476.351562 1180.429688 L 2477.179688 1179.238281 L 2477.21875 1179.191406 L 2478.339844 1177.480469 L 2478.441406 1177.300781 L 2479.289062 1175.980469 L 2479.429688 1175.761719 L 2480.511719 1174.019531 L 2480.570312 1173.949219 L 2480.898438 1173.378906 L 2481.949219 1171.609375 L 2482.519531 1170.621094 L 2482.601562 1170.488281 L 2483.601562 1168.699219 L 2483.71875 1168.46875 L 2484.289062 1167.410156 L 2484.921875 1166.210938 L 2485.949219 1164.230469 L 2486.679688 1162.738281 L 2487.191406 1161.710938 L 2487.351562 1161.378906 L 2488.210938 1159.511719 L 2488.230469 1159.441406 L 2488.71875 1158.351562 L 2489.410156 1156.78125 L 2489.75 1156.03125 L 2489.871094 1155.730469 L 2490.828125 1153.398438 L 2491.300781 1152.160156 L 2491.421875 1151.898438 L 2492.148438 1149.960938 L 2492.230469 1149.730469 L 2493.269531 1146.800781 L 2493.371094 1146.53125 L 2493.53125 1146.039062 L 2494.359375 1143.488281 L 2494.5 1143.03125 L 2495.230469 1140.558594 L 2495.378906 1140.058594 L 2495.398438 1140.019531 L 2495.558594 1139.410156 L 2496.25 1136.871094 L 2496.308594 1136.640625 L 2497.078125 1133.46875 L 2497.140625 1133.230469 L 2497.710938 1130.601562 L 2497.851562 1130.019531 L 2497.859375 1129.859375 L 2498.28125 1127.78125 L 2498.378906 1127.289062 L 2498.570312 1126.140625 L 2498.988281 1123.601562 L 2499.070312 1123.199219 L 2499.101562 1122.910156 L 2499.5 1120.070312 L 2499.539062 1119.738281 L 2499.601562 1119.378906 L 2499.828125 1117.25 L 2499.871094 1116.910156 L 2500.011719 1115.621094 L 2500.230469 1112.960938 L 2500.25 1112.769531 L 2500.269531 1112.46875 L 2500.460938 1109.460938 L 2500.480469 1109.070312 L 2500.601562 1105.960938 L 2500.621094 1105.300781 L 2500.660156 1102.109375 C 2500.660156 1025.671875 2438.46875 963.46875 2362.039062 963.46875 L 2358.46875 963.511719 L 2358.359375 963.511719 L 2354.949219 963.648438 L 2354.910156 963.648438 L 2354.710938 963.660156 L 2351.398438 963.871094 L 2351.070312 963.890625 L 2348.171875 964.160156 L 2347.898438 964.179688 L 2347.460938 964.230469 L 2345.078125 964.5 L 2344.410156 964.578125 L 2343.878906 964.648438 L 2341.019531 965.058594 L 2340.878906 965.070312 L 2337.988281 965.558594 L 2337.53125 965.640625 L 2337.320312 965.679688 C 2335.191406 966.058594 2333.101562 966.488281 2331.011719 966.960938 L 2330.78125 967.019531 L 2327.570312 967.800781 L 2327.449219 967.839844 L 2327.429688 967.839844 L 2324.429688 968.648438 L 2324.179688 968.730469 L 2324.140625 968.730469 L 2323.691406 968.871094 L 2321.089844 969.640625 L 2320.871094 969.710938 L 2320.808594 969.730469 L 2320.589844 969.789062 L 2317.910156 970.671875 L 2317.621094 970.761719 L 2317.460938 970.820312 L 2317.421875 970.828125 C 2315.351562 971.539062 2313.28125 972.289062 2311.261719 973.101562 L 2310.921875 973.238281 C 2309.128906 973.949219 2307.339844 974.710938 2305.578125 975.488281 L 2305.050781 975.730469 L 2304.96875 975.761719 C 2300.949219 977.578125 2297.03125 979.589844 2293.230469 981.769531 L 2293.089844 981.859375 L 2290.28125 983.53125 L 2016.320312 731.648438 C 2008.070312 724.070312 1997.039062 720.421875 1985.828125 721.660156 C 1974.699219 722.910156 1964.648438 728.859375 1958.289062 738.078125 L 1675.480469 1146.03125 L 1672.871094 1145.191406 L 1672.601562 1145.101562 L 1672.21875 1144.988281 L 1669.640625 1144.21875 L 1669.578125 1144.199219 L 1669.328125 1144.128906 L 1668.921875 1144.011719 L 1666.261719 1143.289062 L 1666.03125 1143.230469 L 1665.589844 1143.121094 L 1662.898438 1142.460938 L 1662.699219 1142.410156 L 1662.21875 1142.308594 L 1660.871094 1142.011719 L 1660.191406 1141.859375 L 1659.511719 1141.71875 L 1659.339844 1141.679688 L 1658.820312 1141.578125 L 1656.789062 1141.179688 L 1656.101562 1141.058594 L 1655.941406 1141.03125 L 1655.410156 1140.941406 L 1653.339844 1140.589844 L 1652.648438 1140.480469 L 1652.511719 1140.460938 L 1652.429688 1140.441406 L 1649.871094 1140.078125 L 1649.171875 1139.988281 L 1648.929688 1139.949219 L 1646.371094 1139.660156 L 1645.679688 1139.589844 L 1645.578125 1139.578125 L 1644.96875 1139.519531 L 1642.851562 1139.328125 L 1642.148438 1139.269531 L 1642.078125 1139.261719 L 1641.441406 1139.210938 L 1638.589844 1139.050781 L 1638.539062 1139.050781 L 1635.738281 1138.929688 L 1635.019531 1138.910156 L 1635 1138.910156 L 1631.421875 1138.859375 C 1554.96875 1138.859375 1492.78125 1201.050781 1492.78125 1277.5 C 1492.78125 1278.53125 1492.78125 1279.570312 1492.808594 1280.589844 L 1492.820312 1281.078125 L 1492.828125 1281.160156 L 1492.960938 1284.539062 L 1492.96875 1284.679688 L 1493.191406 1288.160156 L 1493.191406 1288.25 L 1493.460938 1291.28125 L 1493.488281 1291.660156 L 1493.539062 1292.039062 L 1493.800781 1294.289062 L 1493.890625 1295.140625 L 1493.929688 1295.378906 L 1494.359375 1298.449219 L 1494.378906 1298.589844 L 1494.410156 1298.78125 L 1494.878906 1301.609375 L 1494.898438 1301.738281 L 1494.949219 1302.019531 L 1495.171875 1303.210938 L 1495.460938 1304.679688 L 1495.480469 1304.800781 L 1495.691406 1305.839844 L 1496.300781 1308.609375 L 1496.339844 1308.769531 L 1496.398438 1309.039062 L 1497.089844 1311.851562 L 1497.109375 1311.921875 L 1497.148438 1312.109375 L 1497.488281 1313.359375 L 1497.871094 1314.789062 L 1497.929688 1314.980469 L 1498.210938 1315.949219 L 1498.890625 1318.238281 L 1499.03125 1318.679688 L 1499.128906 1319.039062 L 1499.179688 1319.171875 L 1499.988281 1321.671875 L 1500.050781 1321.828125 L 1500.078125 1321.921875 L 1500.210938 1322.308594 L 1501.019531 1324.601562 L 1501.199219 1325.121094 L 1501.53125 1325.96875 L 1502.308594 1328.019531 L 1502.410156 1328.289062 L 1502.578125 1328.710938 L 1503.410156 1330.730469 L 1504.179688 1332.539062 L 1504.28125 1332.75 L 1504.871094 1334.089844 L 1505.488281 1335.449219 L 1506.269531 1337.109375 L 1506.78125 1338.171875 L 1507.738281 1340.089844 L 1507.96875 1340.570312 L 1508.011719 1340.640625 L 1508.210938 1341.011719 L 1509.328125 1343.140625 L 1510.011719 1344.371094 L 1510.070312 1344.480469 L 1510.78125 1345.738281 L 1511.5 1347 L 1512.21875 1348.25 L 1512.328125 1348.429688 L 1513.628906 1350.550781 L 1513.878906 1350.949219 L 1515.109375 1352.871094 L 1515.289062 1353.148438 L 1516.089844 1354.359375 L 1516.171875 1354.488281 L 1516.828125 1355.460938 L 1516.898438 1355.550781 L 1517.71875 1356.738281 L 1517.808594 1356.878906 L 1519.390625 1359.070312 L 1519.398438 1359.089844 L 1521 1361.238281 L 1521.121094 1361.398438 L 1522 1362.539062 L 1522.890625 1363.671875 L 1523.800781 1364.800781 L 1516.019531 1376.011719 L 1336.050781 1546.488281 L 1334.121094 1545.378906 L 1333.140625 1544.828125 L 1333.03125 1544.78125 L 1331.171875 1543.761719 L 1330.191406 1543.230469 L 1329.820312 1543.050781 L 1328.359375 1542.289062 L 1328.191406 1542.21875 L 1327.179688 1541.710938 L 1326.179688 1541.210938 L 1325.160156 1540.738281 L 1324.148438 1540.261719 L 1323.871094 1540.128906 L 1322.101562 1539.328125 L 1321.058594 1538.878906 L 1319 1538 L 1317.941406 1537.570312 L 1317.769531 1537.5 L 1316.03125 1536.820312 L 1315.839844 1536.738281 L 1313.738281 1535.941406 L 1313.679688 1535.910156 L 1312.671875 1535.558594 L 1311.601562 1535.171875 L 1311.378906 1535.101562 L 1309.730469 1534.539062 L 1309.449219 1534.441406 L 1308.371094 1534.089844 L 1307.289062 1533.75 L 1307.25 1533.738281 L 1306.199219 1533.421875 L 1305.109375 1533.089844 L 1304.019531 1532.769531 L 1303.96875 1532.75 L 1302.910156 1532.460938 L 1301.808594 1532.160156 L 1300.710938 1531.871094 L 1300.679688 1531.859375 L 1299.589844 1531.601562 L 1297.699219 1531.140625 L 1297.371094 1531.058594 L 1297.328125 1531.050781 L 1296.980469 1530.96875 L 1294.449219 1530.421875 L 1294 1530.320312 L 1293.96875 1530.308594 L 1292.871094 1530.089844 L 1291.730469 1529.871094 L 1291.238281 1529.78125 L 1289.878906 1529.539062 L 1287.359375 1529.128906 L 1287.171875 1529.101562 L 1287.148438 1529.089844 L 1286.878906 1529.050781 L 1284.871094 1528.761719 L 1283.71875 1528.601562 L 1283.699219 1528.601562 L 1283.28125 1528.550781 L 1281.398438 1528.339844 L 1280.230469 1528.210938 L 1280.21875 1528.199219 L 1279.761719 1528.160156 L 1276.71875 1527.898438 L 1276.710938 1527.898438 C 1275.539062 1527.808594 1274.371094 1527.730469 1273.191406 1527.671875 C 1272 1527.609375 1270.828125 1527.558594 1269.640625 1527.53125 L 1269.628906 1527.53125 L 1266.058594 1527.488281 C 1189.609375 1527.488281 1127.410156 1589.679688 1127.410156 1666.128906 C 1127.410156 1668.53125 1127.480469 1670.890625 1127.601562 1673.25 L 1127.621094 1673.578125 L 1127.820312 1676.738281 L 1127.828125 1676.78125 L 1128.078125 1679.789062 L 1128.089844 1679.890625 L 1128.128906 1680.289062 L 1128.199219 1680.929688 L 1128.441406 1683.011719 L 1128.539062 1683.761719 L 1128.578125 1684.050781 L 1128.589844 1684.121094 L 1129.011719 1687.140625 L 1129.019531 1687.21875 L 1129.039062 1687.320312 L 1129.511719 1690.210938 L 1129.578125 1690.648438 L 1129.699219 1691.230469 L 1129.710938 1691.28125 L 1130.089844 1693.261719 L 1130.238281 1694.050781 L 1130.289062 1694.269531 L 1130.910156 1697.101562 L 1130.949219 1697.289062 L 1130.96875 1697.398438 L 1131.191406 1698.289062 L 1131.679688 1700.28125 L 1131.789062 1700.738281 L 1131.941406 1701.28125 L 1132.199219 1702.261719 L 1132.46875 1703.261719 L 1132.550781 1703.53125 L 1132.738281 1704.238281 L 1133.03125 1705.21875 L 1133.320312 1706.191406 L 1133.621094 1707.171875 L 1133.820312 1707.789062 L 1134.550781 1710.078125 L 1134.878906 1711.011719 L 1135.558594 1712.949219 L 1135.851562 1713.75 L 1135.898438 1713.898438 L 1135.929688 1713.96875 L 1136.941406 1716.621094 L 1136.988281 1716.738281 L 1137.058594 1716.921875 L 1137.359375 1717.679688 L 1138.128906 1719.550781 L 1138.339844 1720.050781 L 1138.519531 1720.46875 L 1138.921875 1721.398438 L 1139.328125 1722.320312 L 1139.980469 1723.769531 L 1140.160156 1724.160156 L 1140.578125 1725.070312 L 1141.019531 1725.980469 L 1141.109375 1726.191406 L 1141.460938 1726.871094 L 1141.898438 1727.78125 L 1142.359375 1728.679688 L 1142.390625 1728.75 L 1142.808594 1729.570312 L 1031.589844 1834.921875 C 1016.058594 1849.628906 1015.390625 1874.121094 1030.089844 1889.660156 C 1037.710938 1897.699219 1047.960938 1901.761719 1058.21875 1901.761719 C 1067.769531 1901.761719 1077.351562 1898.25 1084.820312 1891.148438 L 1196.070312 1785.761719 L 1198.019531 1786.890625 L 1198.988281 1787.429688 L 1200.960938 1788.5 L 1201.949219 1789.019531 L 1202.019531 1789.058594 L 1203.941406 1790.050781 L 1204.941406 1790.550781 L 1205.949219 1791.039062 L 1206.96875 1791.53125 L 1207.980469 1792.011719 L 1208.109375 1792.070312 L 1210.03125 1792.941406 L 1211.058594 1793.390625 L 1213.128906 1794.269531 L 1214.179688 1794.699219 L 1214.320312 1794.761719 L 1216.121094 1795.460938 L 1216.28125 1795.53125 L 1217.328125 1795.929688 L 1218.390625 1796.320312 L 1219.398438 1796.691406 L 1219.460938 1796.710938 L 1220.519531 1797.078125 L 1220.738281 1797.160156 L 1222.398438 1797.71875 L 1222.671875 1797.820312 L 1223.75 1798.179688 L 1224.839844 1798.511719 L 1224.878906 1798.53125 L 1225.929688 1798.839844 L 1227.011719 1799.171875 L 1228.121094 1799.5 L 1228.148438 1799.5 L 1228.679688 1799.648438 L 1230.308594 1800.101562 L 1231.421875 1800.390625 L 1231.449219 1800.398438 L 1231.640625 1800.449219 L 1234.441406 1801.128906 L 1234.75 1801.210938 L 1234.789062 1801.21875 L 1235.128906 1801.289062 L 1237.769531 1801.871094 L 1238.121094 1801.949219 L 1238.148438 1801.960938 L 1238.601562 1802.050781 L 1240.988281 1802.5 L 1242.160156 1802.710938 L 1244.851562 1803.148438 L 1244.949219 1803.171875 L 1244.980469 1803.179688 L 1245.148438 1803.199219 L 1247.25 1803.5 L 1248.410156 1803.648438 L 1248.421875 1803.660156 L 1248.828125 1803.710938 L 1250.730469 1803.929688 L 1251.890625 1804.058594 L 1251.910156 1804.058594 L 1252.328125 1804.089844 L 1255.398438 1804.371094 L 1255.410156 1804.371094 C 1256.578125 1804.460938 1257.75 1804.539062 1258.929688 1804.601562 C 1260.121094 1804.660156 1261.289062 1804.710938 1262.480469 1804.730469 L 1262.488281 1804.730469 L 1266.058594 1804.769531 C 1342.519531 1804.769531 1404.710938 1742.578125 1404.710938 1666.128906 C 1404.710938 1663.738281 1404.640625 1661.371094 1404.519531 1659.011719 L 1404.511719 1658.691406 L 1404.300781 1655.519531 L 1404.300781 1655.480469 L 1404.03125 1652.378906 L 1403.988281 1651.96875 L 1403.921875 1651.339844 L 1403.679688 1649.261719 L 1403.589844 1648.5 L 1403.550781 1648.230469 L 1403.128906 1645.191406 L 1403.109375 1645.128906 L 1403.101562 1645.039062 L 1403.070312 1644.820312 L 1402.609375 1642.058594 L 1402.539062 1641.621094 L 1402.429688 1641.050781 L 1401.988281 1638.75 L 1401.78125 1637.730469 L 1401.179688 1634.988281 L 1401.148438 1634.859375 L 1401.121094 1634.769531 L 1400.449219 1631.988281 L 1400.328125 1631.519531 L 1400.199219 1631 L 1399.570312 1628.671875 L 1399.300781 1627.75 L 1398.511719 1625.109375 L 1398.460938 1624.949219 L 1397.578125 1622.199219 L 1397.410156 1621.710938 L 1397.25 1621.25 L 1396.351562 1618.738281 L 1396.28125 1618.511719 L 1396.230469 1618.378906 L 1396.191406 1618.269531 L 1395.140625 1615.539062 L 1395.070312 1615.351562 L 1394.769531 1614.601562 L 1393.96875 1612.628906 L 1393.621094 1611.800781 L 1393.210938 1610.878906 L 1392.808594 1609.960938 L 1392.441406 1609.121094 L 1392.398438 1609.039062 L 1392.28125 1608.789062 L 1391.550781 1607.210938 L 1391.109375 1606.308594 L 1390.808594 1605.660156 L 1389.789062 1603.601562 L 1389.511719 1603.070312 L 1389.320312 1602.710938 L 1572.191406 1429.46875 C 1574.128906 1427.640625 1575.878906 1425.609375 1577.398438 1423.421875 L 1587.410156 1408.980469 L 1590.019531 1409.828125 L 1590.238281 1409.910156 L 1590.671875 1410.039062 L 1592.640625 1410.628906 L 1593.300781 1410.808594 L 1593.511719 1410.878906 L 1593.960938 1411.011719 L 1596.609375 1411.71875 L 1596.808594 1411.769531 L 1597.28125 1411.898438 L 1599.96875 1412.550781 L 1600.148438 1412.589844 L 1600.648438 1412.710938 L 1603.351562 1413.300781 L 1603.511719 1413.328125 L 1604.03125 1413.429688 L 1606.089844 1413.828125 L 1606.769531 1413.960938 L 1606.910156 1413.980469 L 1607.089844 1414 L 1610.21875 1414.53125 L 1610.339844 1414.550781 L 1610.910156 1414.640625 L 1613.679688 1415.019531 L 1613.789062 1415.03125 L 1616.480469 1415.339844 L 1617.179688 1415.421875 L 1617.269531 1415.429688 L 1617.890625 1415.488281 L 1620.699219 1415.738281 L 1620.808594 1415.738281 C 1621.949219 1415.828125 1623.101562 1415.910156 1624.261719 1415.96875 L 1624.300781 1415.96875 L 1627.109375 1416.070312 L 1627.828125 1416.101562 L 1627.851562 1416.101562 L 1631.421875 1416.140625 C 1707.851562 1416.140625 1770.058594 1353.949219 1770.058594 1277.5 C 1770.058594 1276.480469 1770.058594 1275.441406 1770.039062 1274.410156 L 1770.03125 1273.929688 L 1770.019531 1273.851562 L 1769.890625 1270.46875 L 1769.878906 1270.320312 L 1769.660156 1266.851562 L 1769.648438 1266.75 L 1769.390625 1263.730469 L 1769.359375 1263.351562 L 1769.308594 1262.96875 L 1769.058594 1260.71875 L 1768.949219 1259.871094 L 1768.921875 1259.621094 L 1768.488281 1256.558594 L 1768.46875 1256.410156 L 1768.441406 1256.238281 L 1767.96875 1253.390625 L 1767.949219 1253.269531 L 1767.898438 1252.988281 L 1767.679688 1251.800781 L 1767.398438 1250.328125 L 1767.371094 1250.210938 L 1767.160156 1249.171875 L 1766.550781 1246.410156 L 1766.511719 1246.230469 L 1766.449219 1245.960938 L 1765.761719 1243.160156 L 1765.738281 1243.078125 L 1765.691406 1242.890625 L 1765.371094 1241.648438 L 1764.96875 1240.21875 L 1764.910156 1240.019531 L 1764.640625 1239.050781 L 1763.960938 1236.761719 L 1763.820312 1236.320312 L 1763.710938 1235.980469 L 1763.660156 1235.828125 L 1762.851562 1233.351562 L 1762.808594 1233.179688 L 1762.769531 1233.089844 L 1762.640625 1232.710938 L 1761.828125 1230.398438 L 1761.640625 1229.890625 L 1761.320312 1229.03125 L 1760.539062 1226.988281 L 1760.429688 1226.71875 L 1760.261719 1226.289062 L 1759.441406 1224.269531 L 1758.671875 1222.460938 L 1758.570312 1222.25 L 1757.988281 1220.929688 L 1757.359375 1219.570312 L 1756.578125 1217.890625 L 1756.070312 1216.839844 L 1755.109375 1214.921875 L 1754.878906 1214.429688 L 1754.839844 1214.371094 L 1754.640625 1214 L 1753.519531 1211.859375 L 1752.839844 1210.628906 L 1752.78125 1210.519531 L 1752.070312 1209.261719 L 1751.351562 1208 L 1750.621094 1206.761719 L 1750.511719 1206.578125 L 1749.210938 1204.460938 L 1748.96875 1204.058594 L 1747.738281 1202.140625 L 1747.558594 1201.859375 L 1746.761719 1200.648438 L 1746.671875 1200.519531 L 1746.011719 1199.539062 L 1745.949219 1199.449219 L 1745.140625 1198.269531 L 1745.039062 1198.128906 L 1743.449219 1195.929688 L 1743.441406 1195.910156 L 1741.851562 1193.761719 L 1741.730469 1193.609375 L 1740.851562 1192.46875 L 1739.949219 1191.328125 L 1739.050781 1190.210938 L 1996.621094 818.710938 L 2237.859375 1040.550781 L 2237.421875 1041.421875 L 2236.601562 1043.171875 L 2236.179688 1044.058594 L 2236.101562 1044.21875 C 2234.78125 1047.078125 2233.558594 1049.988281 2232.441406 1052.960938 Z M 1906.601562 2447.199219 L 928.5625 2447.199219 C 907.167969 2447.199219 889.84375 2429.859375 889.84375 2408.488281 L 889.84375 736.171875 C 889.84375 714.78125 907.167969 697.449219 928.5625 697.449219 C 949.957031 697.449219 967.28125 714.78125 967.28125 736.171875 L 967.28125 2369.761719 L 1866.421875 2369.761719 C 1874.828125 2390.070312 1884.640625 2410.050781 1895.921875 2429.589844 C 1899.359375 2435.539062 1902.929688 2441.410156 1906.601562 2447.199219 "/>
</clipPath>
<linearGradient id="linear-pattern-1" gradientUnits="userSpaceOnUse" x1="0.000000000000000056" y1="0" x2="1.002984" y2="0" gradientTransform="matrix(2090.14, 0, 0, 2090.14, 889.844, 1936.48)">
<stop offset="0" stop-color="rgb(0%, 16.470337%, 22.3526%)" stop-opacity="1"/>
<stop offset="0.0078125" stop-color="rgb(0%, 16.610718%, 22.494507%)" stop-opacity="1"/>
<stop offset="0.015625" stop-color="rgb(0%, 16.893005%, 22.779846%)" stop-opacity="1"/>
<stop offset="0.0234375" stop-color="rgb(0%, 17.175293%, 23.066711%)" stop-opacity="1"/>
<stop offset="0.03125" stop-color="rgb(0%, 17.459106%, 23.352051%)" stop-opacity="1"/>
<stop offset="0.0390625" stop-color="rgb(0%, 17.741394%, 23.63739%)" stop-opacity="1"/>
<stop offset="0.046875" stop-color="rgb(0%, 18.023682%, 23.922729%)" stop-opacity="1"/>
<stop offset="0.0546875" stop-color="rgb(0%, 18.307495%, 24.209595%)" stop-opacity="1"/>
<stop offset="0.0625" stop-color="rgb(0%, 18.589783%, 24.494934%)" stop-opacity="1"/>
<stop offset="0.0703125" stop-color="rgb(0%, 18.87207%, 24.780273%)" stop-opacity="1"/>
<stop offset="0.078125" stop-color="rgb(0%, 19.154358%, 25.067139%)" stop-opacity="1"/>
<stop offset="0.0859375" stop-color="rgb(0%, 19.438171%, 25.352478%)" stop-opacity="1"/>
<stop offset="0.09375" stop-color="rgb(0%, 19.720459%, 25.637817%)" stop-opacity="1"/>
<stop offset="0.101562" stop-color="rgb(0%, 20.002747%, 25.923157%)" stop-opacity="1"/>
<stop offset="0.109375" stop-color="rgb(0%, 20.285034%, 26.210022%)" stop-opacity="1"/>
<stop offset="0.117187" stop-color="rgb(0%, 20.568848%, 26.495361%)" stop-opacity="1"/>
<stop offset="0.125" stop-color="rgb(0%, 20.851135%, 26.780701%)" stop-opacity="1"/>
<stop offset="0.132812" stop-color="rgb(0%, 21.133423%, 27.067566%)" stop-opacity="1"/>
<stop offset="0.140625" stop-color="rgb(0%, 21.417236%, 27.352905%)" stop-opacity="1"/>
<stop offset="0.148437" stop-color="rgb(0%, 21.699524%, 27.638245%)" stop-opacity="1"/>
<stop offset="0.15625" stop-color="rgb(0%, 21.981812%, 27.923584%)" stop-opacity="1"/>
<stop offset="0.164062" stop-color="rgb(0%, 22.264099%, 28.210449%)" stop-opacity="1"/>
<stop offset="0.171875" stop-color="rgb(0%, 22.547913%, 28.495789%)" stop-opacity="1"/>
<stop offset="0.179687" stop-color="rgb(0%, 22.8302%, 28.781128%)" stop-opacity="1"/>
<stop offset="0.1875" stop-color="rgb(0%, 23.112488%, 29.067993%)" stop-opacity="1"/>
<stop offset="0.195312" stop-color="rgb(0%, 23.394775%, 29.353333%)" stop-opacity="1"/>
<stop offset="0.203125" stop-color="rgb(0%, 23.678589%, 29.638672%)" stop-opacity="1"/>
<stop offset="0.210937" stop-color="rgb(0%, 23.960876%, 29.924011%)" stop-opacity="1"/>
<stop offset="0.21875" stop-color="rgb(0%, 24.243164%, 30.210876%)" stop-opacity="1"/>
<stop offset="0.226562" stop-color="rgb(0%, 24.526978%, 30.496216%)" stop-opacity="1"/>
<stop offset="0.234375" stop-color="rgb(0%, 24.809265%, 30.781555%)" stop-opacity="1"/>
<stop offset="0.242187" stop-color="rgb(0%, 25.091553%, 31.06842%)" stop-opacity="1"/>
<stop offset="0.25" stop-color="rgb(0%, 25.37384%, 31.35376%)" stop-opacity="1"/>
<stop offset="0.257812" stop-color="rgb(0%, 25.657654%, 31.639099%)" stop-opacity="1"/>
<stop offset="0.265625" stop-color="rgb(0%, 25.939941%, 31.924438%)" stop-opacity="1"/>
<stop offset="0.273438" stop-color="rgb(0%, 26.222229%, 32.211304%)" stop-opacity="1"/>
<stop offset="0.28125" stop-color="rgb(0%, 26.504517%, 32.496643%)" stop-opacity="1"/>
<stop offset="0.289062" stop-color="rgb(0%, 26.78833%, 32.781982%)" stop-opacity="1"/>
<stop offset="0.296875" stop-color="rgb(0%, 27.070618%, 33.068848%)" stop-opacity="1"/>
<stop offset="0.304687" stop-color="rgb(0%, 27.352905%, 33.354187%)" stop-opacity="1"/>
<stop offset="0.3125" stop-color="rgb(0%, 27.636719%, 33.639526%)" stop-opacity="1"/>
<stop offset="0.320312" stop-color="rgb(0%, 27.919006%, 33.924866%)" stop-opacity="1"/>
<stop offset="0.328125" stop-color="rgb(0%, 28.201294%, 34.211731%)" stop-opacity="1"/>
<stop offset="0.335938" stop-color="rgb(0%, 28.483582%, 34.49707%)" stop-opacity="1"/>
<stop offset="0.34375" stop-color="rgb(0%, 28.767395%, 34.78241%)" stop-opacity="1"/>
<stop offset="0.351562" stop-color="rgb(0%, 29.049683%, 35.069275%)" stop-opacity="1"/>
<stop offset="0.359375" stop-color="rgb(0%, 29.33197%, 35.354614%)" stop-opacity="1"/>
<stop offset="0.367187" stop-color="rgb(0%, 29.614258%, 35.639954%)" stop-opacity="1"/>
<stop offset="0.375" stop-color="rgb(0%, 29.898071%, 35.925293%)" stop-opacity="1"/>
<stop offset="0.382812" stop-color="rgb(0%, 30.180359%, 36.212158%)" stop-opacity="1"/>
<stop offset="0.390625" stop-color="rgb(0%, 30.462646%, 36.497498%)" stop-opacity="1"/>
<stop offset="0.398438" stop-color="rgb(0%, 30.74646%, 36.782837%)" stop-opacity="1"/>
<stop offset="0.40625" stop-color="rgb(0%, 31.028748%, 37.069702%)" stop-opacity="1"/>
<stop offset="0.414062" stop-color="rgb(0%, 31.311035%, 37.355042%)" stop-opacity="1"/>
<stop offset="0.421875" stop-color="rgb(0%, 31.593323%, 37.640381%)" stop-opacity="1"/>
<stop offset="0.429687" stop-color="rgb(0%, 31.877136%, 37.92572%)" stop-opacity="1"/>
<stop offset="0.4375" stop-color="rgb(0%, 32.159424%, 38.212585%)" stop-opacity="1"/>
<stop offset="0.445312" stop-color="rgb(0%, 32.441711%, 38.497925%)" stop-opacity="1"/>
<stop offset="0.453125" stop-color="rgb(0%, 32.723999%, 38.783264%)" stop-opacity="1"/>
<stop offset="0.460938" stop-color="rgb(0%, 33.007812%, 39.070129%)" stop-opacity="1"/>
<stop offset="0.46875" stop-color="rgb(0%, 33.2901%, 39.355469%)" stop-opacity="1"/>
<stop offset="0.476562" stop-color="rgb(0%, 33.572388%, 39.640808%)" stop-opacity="1"/>
<stop offset="0.484375" stop-color="rgb(0%, 33.856201%, 39.926147%)" stop-opacity="1"/>
<stop offset="0.492187" stop-color="rgb(0%, 34.138489%, 40.213013%)" stop-opacity="1"/>
<stop offset="0.5" stop-color="rgb(0%, 34.420776%, 40.498352%)" stop-opacity="1"/>
<stop offset="0.507812" stop-color="rgb(0%, 34.703064%, 40.783691%)" stop-opacity="1"/>
<stop offset="0.515625" stop-color="rgb(0%, 34.986877%, 41.070557%)" stop-opacity="1"/>
<stop offset="0.523438" stop-color="rgb(0%, 35.269165%, 41.355896%)" stop-opacity="1"/>
<stop offset="0.53125" stop-color="rgb(0%, 35.551453%, 41.641235%)" stop-opacity="1"/>
<stop offset="0.539063" stop-color="rgb(0%, 35.83374%, 41.926575%)" stop-opacity="1"/>
<stop offset="0.546875" stop-color="rgb(0%, 36.117554%, 42.21344%)" stop-opacity="1"/>
<stop offset="0.554688" stop-color="rgb(0%, 36.399841%, 42.498779%)" stop-opacity="1"/>
<stop offset="0.5625" stop-color="rgb(0%, 36.682129%, 42.784119%)" stop-opacity="1"/>
<stop offset="0.570312" stop-color="rgb(0%, 36.965942%, 43.070984%)" stop-opacity="1"/>
<stop offset="0.578125" stop-color="rgb(0%, 37.24823%, 43.356323%)" stop-opacity="1"/>
<stop offset="0.585937" stop-color="rgb(0%, 37.530518%, 43.641663%)" stop-opacity="1"/>
<stop offset="0.59375" stop-color="rgb(0%, 37.812805%, 43.927002%)" stop-opacity="1"/>
<stop offset="0.601562" stop-color="rgb(0%, 38.096619%, 44.213867%)" stop-opacity="1"/>
<stop offset="0.609375" stop-color="rgb(0%, 38.378906%, 44.499207%)" stop-opacity="1"/>
<stop offset="0.617188" stop-color="rgb(0%, 38.661194%, 44.784546%)" stop-opacity="1"/>
<stop offset="0.625" stop-color="rgb(0%, 38.943481%, 45.071411%)" stop-opacity="1"/>
<stop offset="0.632812" stop-color="rgb(0%, 39.227295%, 45.35675%)" stop-opacity="1"/>
<stop offset="0.640625" stop-color="rgb(0%, 39.509583%, 45.64209%)" stop-opacity="1"/>
<stop offset="0.648438" stop-color="rgb(0%, 39.79187%, 45.927429%)" stop-opacity="1"/>
<stop offset="0.65625" stop-color="rgb(0%, 40.075684%, 46.214294%)" stop-opacity="1"/>
<stop offset="0.664063" stop-color="rgb(0%, 40.357971%, 46.499634%)" stop-opacity="1"/>
<stop offset="0.671875" stop-color="rgb(0%, 40.640259%, 46.784973%)" stop-opacity="1"/>
<stop offset="0.679688" stop-color="rgb(0%, 40.922546%, 47.071838%)" stop-opacity="1"/>
<stop offset="0.6875" stop-color="rgb(0%, 41.20636%, 47.357178%)" stop-opacity="1"/>
<stop offset="0.695312" stop-color="rgb(0%, 41.488647%, 47.642517%)" stop-opacity="1"/>
<stop offset="0.703125" stop-color="rgb(0%, 41.770935%, 47.927856%)" stop-opacity="1"/>
<stop offset="0.710937" stop-color="rgb(0%, 42.053223%, 48.214722%)" stop-opacity="1"/>
<stop offset="0.71875" stop-color="rgb(0%, 42.337036%, 48.500061%)" stop-opacity="1"/>
<stop offset="0.726562" stop-color="rgb(0%, 42.619324%, 48.7854%)" stop-opacity="1"/>
<stop offset="0.734375" stop-color="rgb(0%, 42.901611%, 49.072266%)" stop-opacity="1"/>
<stop offset="0.742188" stop-color="rgb(0%, 43.185425%, 49.357605%)" stop-opacity="1"/>
<stop offset="0.75" stop-color="rgb(0%, 43.467712%, 49.642944%)" stop-opacity="1"/>
<stop offset="0.757812" stop-color="rgb(0%, 43.75%, 49.928284%)" stop-opacity="1"/>
<stop offset="0.765625" stop-color="rgb(0%, 44.032288%, 50.215149%)" stop-opacity="1"/>
<stop offset="0.773438" stop-color="rgb(0%, 44.316101%, 50.500488%)" stop-opacity="1"/>
<stop offset="0.78125" stop-color="rgb(0%, 44.598389%, 50.785828%)" stop-opacity="1"/>
<stop offset="0.789063" stop-color="rgb(0%, 44.880676%, 51.072693%)" stop-opacity="1"/>
<stop offset="0.796875" stop-color="rgb(0%, 45.162964%, 51.358032%)" stop-opacity="1"/>
<stop offset="0.804688" stop-color="rgb(0%, 45.446777%, 51.643372%)" stop-opacity="1"/>
<stop offset="0.8125" stop-color="rgb(0%, 45.729065%, 51.930237%)" stop-opacity="1"/>
<stop offset="0.820312" stop-color="rgb(0%, 46.011353%, 52.215576%)" stop-opacity="1"/>
<stop offset="0.828125" stop-color="rgb(0%, 46.295166%, 52.500916%)" stop-opacity="1"/>
<stop offset="0.835937" stop-color="rgb(0%, 46.577454%, 52.786255%)" stop-opacity="1"/>
<stop offset="0.84375" stop-color="rgb(0%, 46.859741%, 53.07312%)" stop-opacity="1"/>
<stop offset="0.851562" stop-color="rgb(0%, 47.142029%, 53.358459%)" stop-opacity="1"/>
<stop offset="0.859375" stop-color="rgb(0%, 47.425842%, 53.643799%)" stop-opacity="1"/>
<stop offset="0.867188" stop-color="rgb(0%, 47.70813%, 53.930664%)" stop-opacity="1"/>
<stop offset="0.875" stop-color="rgb(0%, 47.990417%, 54.216003%)" stop-opacity="1"/>
<stop offset="0.882812" stop-color="rgb(0%, 48.272705%, 54.501343%)" stop-opacity="1"/>
<stop offset="0.890625" stop-color="rgb(0%, 48.556519%, 54.786682%)" stop-opacity="1"/>
<stop offset="0.898438" stop-color="rgb(0%, 48.838806%, 55.073547%)" stop-opacity="1"/>
<stop offset="0.90625" stop-color="rgb(0%, 49.121094%, 55.358887%)" stop-opacity="1"/>
<stop offset="0.914063" stop-color="rgb(0%, 49.404907%, 55.644226%)" stop-opacity="1"/>
<stop offset="0.921875" stop-color="rgb(0%, 49.687195%, 55.931091%)" stop-opacity="1"/>
<stop offset="0.929688" stop-color="rgb(0%, 49.969482%, 56.216431%)" stop-opacity="1"/>
<stop offset="0.9375" stop-color="rgb(0%, 50.25177%, 56.50177%)" stop-opacity="1"/>
<stop offset="0.945312" stop-color="rgb(0%, 50.535583%, 56.787109%)" stop-opacity="1"/>
<stop offset="0.953125" stop-color="rgb(0%, 50.817871%, 57.073975%)" stop-opacity="1"/>
<stop offset="0.960937" stop-color="rgb(0%, 51.100159%, 57.359314%)" stop-opacity="1"/>
<stop offset="0.96875" stop-color="rgb(0%, 51.382446%, 57.644653%)" stop-opacity="1"/>
<stop offset="0.976562" stop-color="rgb(0%, 51.66626%, 57.931519%)" stop-opacity="1"/>
<stop offset="0.984375" stop-color="rgb(0%, 51.948547%, 58.216858%)" stop-opacity="1"/>
<stop offset="0.992188" stop-color="rgb(0%, 52.230835%, 58.502197%)" stop-opacity="1"/>
<stop offset="1" stop-color="rgb(0%, 52.459717%, 58.734131%)" stop-opacity="1"/>
</linearGradient>
</defs>
<g clip-path="url(#clip-0)">
<g clip-path="url(#clip-1)">
<path fill-rule="nonzero" fill="url(#linear-pattern-0)" d="M 0 0 L 0 3872.96875 L 3872.96875 3872.96875 L 3872.96875 0 Z M 0 0 "/>
</g>
</g>
<path fill-rule="evenodd" fill="rgb(100%, 100%, 100%)" fill-opacity="1" d="M 1033.089844 311.910156 L 2839.878906 311.910156 C 3236.539062 311.910156 3561.058594 636.441406 3561.058594 1033.089844 L 3561.058594 2839.878906 C 3561.058594 3236.539062 3236.539062 3561.058594 2839.878906 3561.058594 L 1033.089844 3561.058594 C 636.4375 3561.058594 311.914062 3236.539062 311.914062 2839.878906 L 311.914062 1033.089844 C 311.914062 636.441406 636.4375 311.910156 1033.089844 311.910156 "/>
<g clip-path="url(#clip-2)">
<g clip-path="url(#clip-3)">
<path fill-rule="nonzero" fill="url(#linear-pattern-1)" d="M 889.84375 697.449219 L 889.84375 3175.511719 L 2986.21875 3175.511719 L 2986.21875 697.449219 Z M 889.84375 697.449219 "/>
</g>
</g>
</svg>
